<?xml version="1.0" encoding="utf-8"?>
<!-- Svg Vector Icons : http://www.onlinewebfonts.com/icon -->
<!DOCTYPE svg PUBLIC "-//W3C//DTD SVG 1.1//EN" "http://www.w3.org/Graphics/SVG/1.1/DTD/svg11.dtd">
<svg version="1.1" xmlns="http://www.w3.org/2000/svg" xmlns:xlink="http://www.w3.org/1999/xlink" x="0px" y="0px" viewBox="0 0 1000 1000" enable-background="new 0 0 1000 1000" xml:space="preserve">
<metadata> Svg Vector Icons : http://www.onlinewebfonts.com/icon </metadata>
<g><g transform="translate(0.000000,511.000000) scale(0.100000,-0.100000)"><path d="M1808.4,4244.7c-124.7-46-230.2-140-297.3-270.5c-44.1-84.4-49.9-128.5-63.3-383.7c-28.8-562.1-42.2-3767.7-19.2-4364.3c11.5-330,15.4-588.9,5.8-623.5c-17.3-57.6-17.3-55.6-48,48c-115.1,387.5-880.5,3598.8-872.9,3662.1c5.8,49.9,7.7,49.9,188,53.7c306.9,9.6,326.1,21.1,326.1,218.7c0,195.7-17.3,209.1-293.5,209.1c-331.9,0-473.8-59.5-579.3-239.8C51.2,2380,20.5,2548.8,759-697c498.8-2188.8,686.8-2985,719.4-3042.5c51.8-88.3,186.1-218.7,280.1-270.5c63.3-32.6,220.6-34.5,3873.1-40.3c2770.1-3.8,3829,0,3886.6,17.3c117,30.7,253.2,145.8,322.3,266.7l59.5,105.5V108.7v3769.6l-57.6,103.6c-30.7,55.6-90.2,130.5-130.4,166.9c-155.4,132.4,155.4,122.8-4040,122.8C2550.8,4269.6,1867.9,4265.8,1808.4,4244.7z M9437.7,3828.4l49.9-38.4V108.7v-3681.3l-49.9-38.4l-51.8-40.3H5672c-2889,1.9-3721.6,5.8-3744.6,24.9c-17.3,13.4-40.3,42.2-51.8,65.2c-32.6,59.5-32.6,7280.2,0,7339.6c11.5,23,34.5,51.8,51.8,65.2c23,19.2,855.6,23,3744.6,24.9h3713.9L9437.7,3828.4z"/><path d="M2499,3181.9c-28.8-32.6-32.6-134.3-32.6-1055.1V1108.1l42.2-28.8c65.2-46,6257.7-46,6322.9,0l42.2,28.8v1024.4v1024.4l-42.2,28.8c-38.4,26.9-370.2,30.7-3172.9,30.7C2652.5,3216.4,2527.8,3214.5,2499,3181.9z M7833.9,2767.5c69.1-36.5,72.9-48,30.7-130.5c-28.8-55.6-32.6-57.6-118.9-42.2c-235.9,42.2-368.3-5.8-368.3-134.3c1.9-88.2,36.5-120.9,251.3-228.3c247.5-124.7,310.8-199.5,312.7-372.2c0-216.8-124.7-354.9-358.7-395.2c-101.7-17.3-145.8-15.4-253.2,11.5c-170.7,42.2-188,59.5-176.5,163.1c3.8,44.1,13.4,86.3,17.3,92.1c5.8,3.8,49.9-9.6,101.7-32.6c124.7-55.6,299.2-57.5,370.2-3.8c28.8,21.1,59.5,69.1,69.1,109.3c26.8,103.6-21.1,157.3-239.8,262.8c-216.8,105.5-295.4,186.1-316.5,316.5c-25,174.6,72.9,335.7,245.5,399C7504,2821.2,7747.6,2811.6,7833.9,2767.5z M3682.6,2752.2c44.1-42.2,324.2-473.8,479.6-744.3c40.3-69.1,74.8-126.6,78.7-130.4c1.9-3.8,0,180.3-5.8,406.7c-7.7,364.5-5.8,418.2,23,462.3c40.3,63.3,130.5,65.2,172.7,5.8c26.9-36.5,30.7-128.5,30.7-623.5c0-556.3-1.9-583.2-38.4-619.6c-44.1-44.1-92.1-48-161.1-17.3c-40.3,19.2-216.8,287.8-569.8,870.9c-34.5,57.5-36.4,51.8-36.4-397.1c0-429.7-1.9-456.6-36.4-475.7c-53.7-26.9-99.8-23-140,13.4c-32.6,28.8-34.5,72.9-34.5,625.4c0,527.5,3.8,600.4,32.6,631.1C3521.5,2807.8,3623.1,2804,3682.6,2752.2z M5393.8,2746.4c24.9-40.3,28.8-59.5,11.5-95.9c-21.1-46-28.8-46-257.1-51.8l-235.9-5.8l-5.8-166.9l-5.8-168.8h218.7c234,0,262.8-11.5,262.8-95.9c0-84.4-28.8-95.9-262.8-95.9h-216.8v-189.9c0-155.4,5.8-191.8,30.7-201.4c17.3-5.8,126.6-11.5,245.5-11.5c226.4,0,260.9-11.5,260.9-88.2c0-94-36.4-103.6-377.9-103.6c-270.5,0-324.2,5.8-354.9,32.6c-32.6,28.8-34.5,72.9-34.5,625.4c0,527.5,3.8,600.4,32.6,631.1c26.9,30.7,65.2,34.5,343.4,34.5h314.6L5393.8,2746.4z M5704.6,2759.9c23-23,65.2-172.7,126.6-435.5c49.9-222.5,95.9-416.3,101.7-431.6c13.4-34.5,11.5-42.2,142,460.4c103.6,397.1,126.6,441.2,226.4,441.2c99.7,0,113.2-28.8,212.9-447c53.7-218.7,95.9-410.5,95.9-425.9c0-15.3,5.8-28.8,15.3-28.8c7.7,0,61.4,188,118.9,416.3c63.3,255.1,118.9,431.6,140,450.8c63.3,65.2,186.1,34.5,186.1-46c0-71-324.2-1172.1-356.8-1206.6c-17.3-19.2-55.6-36.4-84.4-36.4c-107.4,0-126.6,40.3-230.2,460.4c-51.8,216.8-95.9,410.5-95.9,429.7c0,74.8-21.1,9.6-132.4-399c-63.3-230.2-128.5-433.5-147.7-454.7c-17.3-19.2-55.6-36.4-84.4-36.4c-113.2,0-126.6,28.8-278.2,633.1c-78.6,310.8-143.9,583.2-143.9,606.2c0,21.1,9.6,48,23,61.4C5574.1,2805.9,5664.3,2800.1,5704.6,2759.9z"/><path d="M2556.5,285.2c-24.9-26.9-32.6-72.9-32.6-191.8c0-259-143.9-234,1360.1-234c1513.6,0,1383.1-21.1,1383.1,228.3c0,101.7-9.6,159.2-30.7,189.9l-28.8,42.2H3897.5C2652.5,319.7,2585.3,317.8,2556.5,285.2z"/><path d="M6105.5,285.2c-24.9-26.9-32.6-72.9-32.6-188c0-253.2-147.7-228.3,1327.5-234c700.2-1.9,1291.1,0,1314.1,5.8c82.5,19.2,101.7,61.4,101.7,216.8c0,103.6-9.6,161.1-30.7,191.8l-28.8,42.2H7446.4C6201.4,319.7,6134.3,317.8,6105.5,285.2z"/><path d="M2556.5-961.7c-24.9-26.9-32.6-74.8-32.6-201.4c0-147.7,3.8-166.9,42.2-193.8c38.4-26.8,195.7-30.7,1333.3-30.7c1511.7,0,1367.8-24.9,1367.8,230.2c0,255.1,145.8,230.2-1377.4,230.2C2652.5-927.2,2585.3-929.2,2556.5-961.7z"/><path d="M6105.5-961.7c-24.9-26.9-32.6-72.9-32.6-191.8c0-259-145.8-234,1371.6-234c1515.5,0,1371.6-24.9,1371.6,230.2c0,255.1,145.8,230.2-1377.4,230.2C6201.4-927.2,6134.3-929.2,6105.5-961.7z"/><path d="M2562.3-2212.5c-53.7-53.7-57.6-341.5-3.8-389.4c32.6-30.7,153.5-32.6,1342.9-32.6h1306.4l28.8,42.2c21.1,30.7,30.7,88.2,30.7,191.8c0,249.4,138.1,226.4-1375.5,226.4C2625.6-2174.2,2600.7-2174.2,2562.3-2212.5z"/><path d="M6111.2-2212.5c-53.7-53.7-57.5-341.5-3.8-389.4c32.6-30.7,153.5-32.6,1342.9-32.6h1306.4l28.8,42.2c21.1,30.7,30.7,88.2,30.7,191.8c0,249.4,142,226.4-1371.6,226.4C6174.6-2174.2,6149.6-2174.2,6111.2-2212.5z"/></g></g>
</svg>